<?xml version="1.0" standalone="no"?>
<!DOCTYPE svg PUBLIC "-//W3C//DTD SVG 20010904//EN"
 "http://www.w3.org/TR/2001/REC-SVG-20010904/DTD/svg10.dtd">
<svg version="1.0" xmlns="http://www.w3.org/2000/svg"
 width="80.000000pt" height="80.000000pt" viewBox="0 0 80.000000 80.000000"
 preserveAspectRatio="xMidYMid meet">
<metadata>
Created by potrace 1.11, written by Peter Selinger 2001-2013
</metadata>
<g transform="translate(0.000000,80.000000) scale(0.100000,-0.100000)"
fill="#000000" stroke="none">
<path d="M439 690 c-41 -80 -44 -95 -16 -91 10 2 9 -19 -7 -96 -63 -296 -169
-438 -317 -427 -44 3 -51 1 -58 -19 -13 -33 1 -41 72 -41 176 0 296 159 362
480 19 91 21 95 42 87 16 -6 16 0 -2 87 -2 8 -7 36 -11 63 -3 26 -9 47 -13 47
-3 0 -27 -41 -52 -90z"/>
<path d="M481 436 c-11 -50 -10 -58 13 -115 15 -33 26 -63 26 -66 0 -3 -22 -5
-48 -5 -43 0 -50 -3 -60 -25 -7 -14 -12 -30 -12 -34 0 -5 34 -8 77 -7 l76 1
25 -55 c13 -30 25 -57 27 -59 9 -8 75 -7 75 2 0 8 -178 408 -184 415 -2 1 -8
-22 -15 -52z"/>
</g>
</svg>
